<svg xmlns="http://www.w3.org/2000/svg" width="256" height="256" viewBox="0 0 100 100"><rect width="100" height="100" rx="20" fill="#ffffff"></rect><path fill="#000000" d="M46.61 32.70L46.61 32.70Q46.61 33.72 45.98 34.45Q45.36 35.18 44.56 35.55L44.56 35.55Q42.66 34.23 40.11 33.06Q37.55 31.90 33.47 31.90L33.47 31.90Q30.11 31.90 27.26 33.06Q24.41 34.23 22.30 36.49Q20.18 38.76 18.98 42.19Q17.77 45.62 17.77 50.07L17.77 50.07Q17.77 54.60 18.94 57.96Q20.11 61.31 22.19 63.58Q24.27 65.84 27.19 66.97Q30.11 68.10 33.68 68.10L33.68 68.10Q37.48 68.10 40.29 67.05Q43.10 65.99 45.00 64.53L45.00 64.53Q45.73 64.82 46.39 65.59Q47.04 66.35 47.04 67.37L47.04 67.37Q47.04 68.91 45.29 70.15L45.29 70.15Q43.61 71.32 40.69 72.23Q37.77 73.14 33.25 73.14L33.25 73.14Q28.65 73.14 24.71 71.68Q20.76 70.22 17.88 67.34Q15.00 64.45 13.32 60.15Q11.64 55.84 11.64 50.07L11.64 50.07Q11.64 44.31 13.35 39.96Q15.07 35.62 17.99 32.70Q20.91 29.78 24.81 28.32Q28.72 26.86 33.03 26.86L33.03 26.86Q36.02 26.86 38.54 27.37Q41.06 27.88 42.85 28.72Q44.63 29.56 45.62 30.62Q46.61 31.68 46.61 32.70ZM70.48 56.35L63.10 56.35L63.10 72.05Q62.67 72.19 61.94 72.37Q61.21 72.56 60.33 72.56L60.33 72.56Q57.12 72.56 57.12 69.86L57.12 69.86L57.12 31.02Q57.12 29.85 57.70 29.23Q58.29 28.61 59.53 28.25L59.53 28.25Q61.64 27.59 64.67 27.30Q67.70 27.00 70.55 27.00L70.55 27.00Q79.82 27.00 84.09 30.91Q88.36 34.82 88.36 41.46L88.36 41.46Q88.36 48.25 83.98 52.30Q79.60 56.35 70.48 56.35L70.48 56.35ZM63.03 51.39L70.11 51.39Q75.95 51.39 79.16 48.98Q82.38 46.57 82.38 41.53L82.38 41.53Q82.38 36.57 79.27 34.27Q76.17 31.97 70.40 31.97L70.40 31.97Q68.43 31.97 66.50 32.15Q64.56 32.33 63.03 32.63L63.03 32.63L63.03 51.39Z"></path></svg>